<svg width="400" height="300" viewBox="0 0 400 300" fill="none" xmlns="http://www.w3.org/2000/svg">
<rect width="400" height="300" fill="#E0EAFC"/>
<rect x="0" y="0" width="400" height="300" fill="url(#paint0_linear)"/>
<path d="M200 150C227.614 150 250 127.614 250 100C250 72.3858 227.614 50 200 50C172.386 50 150 72.3858 150 100C150 127.614 172.386 150 200 150Z" fill="#4361EE" fill-opacity="0.8"/>
<path d="M100 250C100 200 150 180 200 180C250 180 300 200 300 250V270H100V250Z" fill="#3F37C9" fill-opacity="0.8"/>
<circle cx="280" cy="180" r="30" fill="#4895EF" fill-opacity="0.6"/>
<circle cx="120" cy="180" r="30" fill="#4895EF" fill-opacity="0.6"/>
<defs>
<linearGradient id="paint0_linear" x1="0" y1="0" x2="400" y2="300" gradientUnits="userSpaceOnUse">
<stop stop-color="#CFDEF3"/>
<stop offset="1" stop-color="#E0EAFC"/>
</linearGradient>
</defs>
</svg>
